<svg xmlns="http://www.w3.org/2000/svg" version="1.1" xmlns:xlink="http://www.w3.org/1999/xlink" xmlns:svgjs="http://svgjs.dev/svgjs" width="1500" height="1500" viewBox="0 0 1500 1500"><rect width="1500" height="1500" fill="#000000"></rect><g transform="matrix(0.6666666666666666,0,0,0.6666666666666666,249.39393939393938,578.7671157474914)"><svg viewBox="0 0 396 135" data-background-color="#ffffff" preserveAspectRatio="xMidYMid meet" height="511" width="1500" xmlns="http://www.w3.org/2000/svg" xmlns:xlink="http://www.w3.org/1999/xlink"><g id="tight-bounds" transform="matrix(1,0,0,1,0.2400000000000091,0.35647565779450474)"><svg viewBox="0 0 395.52 134.2870276437146" height="134.2870276437146" width="395.52"><g><svg viewBox="0 0 668.6287519134617 227.0129644305861" height="134.2870276437146" width="395.52"><g transform="matrix(1,0,0,1,273.10875191346173,64.69191880893699)"><svg viewBox="0 0 395.52 97.62912681271212" height="97.62912681271212" width="395.52"><g id="textblocktransform"><svg viewBox="0 0 395.52 97.62912681271212" height="97.62912681271212" width="395.52" id="textblock"><g><svg viewBox="0 0 395.52 97.62912681271212" height="97.62912681271212" width="395.52"><g transform="matrix(1,0,0,1,0,0)"><svg width="395.52" viewBox="1.27 -29.79 158.23999999999998 39.07" height="97.62912681271212" data-palette-color="#b81d33"><path d="M12.01 8.06L8.59 8.06 8.59-2.05Q11.28 0.29 14.79 0.49L14.79 0.49Q19.14 0.49 22.07-2.78L22.07-2.78Q24.9-5.96 24.9-10.84L24.9-10.84Q24.9-16.41 21.83-19.29L21.83-19.29Q19.68-21.24 16.6-21.24L16.6-21.24Q11.87-21.24 9.52-17.48L9.52-17.48Q8.94-16.5 8.54-15.43L8.54-15.43 8.3-20.75 1.27-20.75 1.27-19.53 4.93-19.53 4.93 5.13Q4.93 7.37 3.66 7.81L3.66 7.81Q2.93 8.06 1.27 8.06L1.27 8.06 1.27 9.28 13.23 9.28Q13.23 8.2 12.5 8.11L12.5 8.11Q12.3 8.06 12.01 8.06L12.01 8.06ZM15.04-19.29L15.04-19.29Q19.29-19.29 20.41-13.96L20.41-13.96Q20.75-12.35 20.75-10.35L20.75-10.35Q20.75-3.17 16.89-1.27L16.89-1.27Q15.77-0.73 14.45-0.73L14.45-0.73Q10.69-0.73 9.28-4.69L9.28-4.69Q8.54-6.69 8.54-9.42L8.54-9.42Q8.54-15.77 11.82-18.21L11.82-18.21Q13.28-19.29 15.04-19.29ZM39.01-20.02L39.01-20.02Q42.43-20.02 43.55-17.14L43.55-17.14Q43.94-16.21 43.94-15.14L43.94-15.14Q43.94-12.7 41.6-12.16L41.6-12.16Q40.38-11.91 38.13-11.96L38.13-11.96 32.96-12.11Q33.2-17.72 36.62-19.43L36.62-19.43Q37.74-20.02 39.01-20.02ZM47.51-4.69L47.51-4.69 46.29-5.13Q44.58-1.42 40.77-0.93L40.77-0.93Q40.28-0.88 39.84-0.88L39.84-0.88Q34.71-0.88 33.4-6.98L33.4-6.98Q33.01-8.69 32.96-10.74L32.96-10.74 38.82-10.64Q44.77-10.55 46.48-11.77L46.48-11.77Q47.8-12.74 47.8-14.55L47.8-14.55Q47.8-17.87 44.43-19.82L44.43-19.82Q42.04-21.24 38.91-21.24L38.91-21.24Q32.81-21.24 30.17-16.16L30.17-16.16Q28.81-13.53 28.81-10.21L28.81-10.21Q28.81-4.15 33.15-1.22L33.15-1.22Q35.74 0.49 39.06 0.49L39.06 0.49Q44.33 0.49 46.82-3.32L46.82-3.32Q47.21-4 47.51-4.69ZM50.48-20.75L50.48-19.53 53.9-19.53 53.9-5.76Q54.24 0.34 59.52 0.54L59.52 0.54Q64.01 0.54 65.13-4.98L65.13-4.98Q65.13-5.03 65.13-5.08L65.13-5.08 63.81-5.32Q62.59-1.27 60.25-0.93L60.25-0.93Q57.61-1.03 57.56-4.69L57.56-4.69 57.56-19.53 65.13-19.53 65.13-20.75 57.56-20.75 57.56-26.42 53.9-25.39 53.9-20.75 50.48-20.75ZM92.13-2.25L92.13-2.25Q92.13-0.2 92.72 0.1L92.72 0.1Q93.06 0.24 93.64 0.24L93.64 0.24 93.64-8.98 92.47-8.98Q89.98-0.93 82.51-0.88L82.51-0.88Q76.16-0.88 73.87-7.28L73.87-7.28Q72.75-10.4 72.75-14.65L72.75-14.65Q72.75-23.78 77.78-27.05L77.78-27.05Q79.97-28.42 82.66-28.42L82.66-28.42Q88.76-28.42 91.5-22.66L91.5-22.66Q91.98-21.63 92.33-20.56L92.33-20.56 93.5-20.56 93.35-29.54Q92.28-29.54 92.03-28.86L92.03-28.86Q91.89-28.27 91.89-26.95L91.89-26.95Q90.47-28.37 87.05-29.25L87.05-29.25Q84.81-29.79 82.46-29.79L82.46-29.79Q74.75-29.79 70.65-24.07L70.65-24.07Q67.81-20.02 67.81-14.75L67.81-14.75Q67.81-8.35 71.77-4L71.77-4Q75.97 0.49 82.71 0.49L82.71 0.49Q87.64 0.44 92.13-2.25ZM114.93 0.49L114.93 0.49Q118.69 0.49 119.08-4.05L119.08-4.05Q119.13-4.35 119.13-4.59L119.13-4.59 117.86-4.64Q117.52-1.07 115.96-1.03L115.96-1.03Q114.69-1.12 114.64-3.56L114.64-3.56 114.64-13.87Q114.64-20.85 107.66-21.24L107.66-21.24Q107.22-21.24 106.78-21.24L106.78-21.24Q101.31-21.24 99.45-18.7L99.45-18.7Q98.87-17.87 98.87-17.04L98.87-17.04Q98.87-15.53 100.28-15.28L100.28-15.28Q100.53-15.23 100.77-15.23L100.77-15.23Q101.89-15.23 102.43-16.65L102.43-16.65Q103.12-18.46 103.36-18.8L103.36-18.8Q104.29-20.02 106.24-20.02L106.24-20.02Q110.83-19.73 110.98-14.99L110.98-14.99 110.98-11.91Q99.5-11.91 97.84-7.13L97.84-7.13Q97.55-6.2 97.55-5.13L97.55-5.13Q97.55-1.42 100.82-0.05L100.82-0.05Q102.14 0.49 103.6 0.49L103.6 0.49Q107.17 0.49 109.61-1.95L109.61-1.95Q110.49-2.88 110.93-3.91L110.93-3.91Q111.51 0.44 114.93 0.49ZM105.21-1.46L105.21-1.46Q102.24-1.46 101.55-4.44L101.55-4.44Q101.41-5.13 101.41-5.96L101.41-5.96Q101.41-9.23 105.17-10.11L105.17-10.11Q107.17-10.55 110.98-10.6L110.98-10.6 110.98-6.69Q110.24-3.32 107.41-1.95L107.41-1.95Q106.29-1.46 105.21-1.46ZM131.77-1.22L131.77-1.22 128.26-1.22 128.26-10.94Q128.26-15.38 130.99-18.07L130.99-18.07Q132.07-19.09 132.8-19.14L132.8-19.14Q133.63-19.14 134.31-17.92L134.31-17.92Q135.09-16.55 135.78-16.36L135.78-16.36Q136.07-16.26 136.36-16.26L136.36-16.26Q137.83-16.26 138.22-17.68L138.22-17.68Q138.32-17.97 138.32-18.26L138.32-18.26Q138.32-20.46 136.07-20.95L136.07-20.95Q135.58-21.04 135.14-21.04L135.14-21.04Q132.21-21.04 129.92-18.55L129.92-18.55Q128.84-17.38 128.21-15.92L128.21-15.92 128.01-20.75 120.93-20.75 120.93-19.53 124.6-19.53 124.6-4.15Q124.6-1.9 123.33-1.46L123.33-1.46Q122.59-1.22 120.93-1.22L120.93-1.22 120.93 0 133 0Q133-1.07 132.26-1.17L132.26-1.17Q132.07-1.22 131.77-1.22ZM150.72-20.02L150.72-20.02Q154.14-20.02 155.26-17.14L155.26-17.14Q155.65-16.21 155.65-15.14L155.65-15.14Q155.65-12.7 153.31-12.16L153.31-12.16Q152.08-11.91 149.84-11.96L149.84-11.96 144.66-12.11Q144.91-17.72 148.32-19.43L148.32-19.43Q149.45-20.02 150.72-20.02ZM159.21-4.69L159.21-4.69 157.99-5.13Q156.28-1.42 152.48-0.93L152.48-0.93Q151.99-0.88 151.55-0.88L151.55-0.88Q146.42-0.88 145.1-6.98L145.1-6.98Q144.71-8.69 144.66-10.74L144.66-10.74 150.52-10.64Q156.48-10.55 158.19-11.77L158.19-11.77Q159.51-12.74 159.51-14.55L159.51-14.55Q159.51-17.87 156.14-19.82L156.14-19.82Q153.74-21.24 150.62-21.24L150.62-21.24Q144.52-21.24 141.88-16.16L141.88-16.16Q140.51-13.53 140.51-10.21L140.51-10.21Q140.51-4.15 144.86-1.22L144.86-1.22Q147.45 0.49 150.77 0.49L150.77 0.49Q156.04 0.49 158.53-3.32L158.53-3.32Q158.92-4 159.21-4.69Z" opacity="1" transform="matrix(1,0,0,1,0,0)" fill="#ffffff" class="wordmark-text-0" data-fill-palette-color="primary" id="text-0"></path></svg></g></svg></g></svg></g></svg></g><g><svg viewBox="0 0 227.0129644305861 227.0129644305861" height="227.0129644305861" width="227.0129644305861"><g><svg></svg></g><g id="icon-0"><svg viewBox="0 0 227.0129644305861 227.0129644305861" height="227.0129644305861" width="227.0129644305861"><g><path d="M0 113.506c0-62.688 50.819-113.506 113.506-113.506 62.688 0 113.506 50.819 113.507 113.506 0 62.688-50.819 113.506-113.507 113.507-62.688 0-113.506-50.819-113.506-113.507zM113.506 218.209c57.825 0 104.702-46.877 104.703-104.703 0-57.825-46.877-104.702-104.703-104.702-57.825 0-104.702 46.877-104.702 104.702 0 57.825 46.877 104.702 104.702 104.703z" data-fill-palette-color="accent" fill="#ffffff" stroke="transparent"></path></g><g transform="matrix(1,0,0,1,54.520496866130706,48.11280952919719)"><svg viewBox="0 0 117.97197069832468 130.7873453721917" height="130.7873453721917" width="117.97197069832468"><g><svg xmlns="http://www.w3.org/2000/svg" xmlns:xlink="http://www.w3.org/1999/xlink" version="1.1" x="0" y="0" viewBox="-243.7609242024277 354.00174683838486 77.57159817884263 85.99825316161514" style="enable-background:new -255 347 100 100;" xml:space="preserve" height="130.7873453721917" width="117.97197069832468" class="icon-dxe-0" data-fill-palette-color="accent" id="dxe-0"><path d="M-215.3 391.2C-213.2 390.7-210.7 389.9-210.9 387.4-210.9 387.1-211 386.9-211.1 386.7-211.8 385.6-214.1 385.6-215.2 385.5H-215.3C-216.4 385.6-218.7 385.6-219.4 386.7-219.5 386.9-219.6 387.2-219.6 387.4-219.8 389.8-217.3 390.6-215.3 391.2" fill="#ffffff" data-fill-palette-color="accent"></path><path d="M-166.4 409C-166.5 408.1-167.3 407.4-168.2 407.2S-170.1 407.5-170.5 408.4C-172.3 412.1-175.8 413.9-177.5 414.6-181.7 400.4-195.2 395.5-200 394.2-198.1 391.9-196.9 389.2-196.2 386.4-193.9 386.2-187.7 385.1-186.9 377.7-186 369.3-189.6 361.9-196.9 357.3-203.9 353-214.5 354.1-215.3 354.2-216.4 354.1-226.8 353.1-233.6 357.4-240.9 362-244.6 369.4-243.6 377.8-242.8 385.2-236.6 386.3-234.3 386.5-233.5 389.3-232.3 392.1-230.4 394.4L-229.5 395.3C-231.7 397-233.1 399.7-233.1 402.5V430.9C-233.1 435.9-229 440-224 440-220.3 440-217.1 437.8-215.7 434.7-214.1 437.5-211.2 439.4-207.7 439.4-204.4 439.4-201.5 437.6-199.9 435-197.1 437.2-194.4 438.3-191.6 438.3-190.7 438.3-189.8 438.2-188.8 438-183.8 436.8-179.6 433.5-177.7 429.3-177.2 428.1-176.8 426.8-176.6 425.5-166.2 421.2-165.7 413.4-166.4 409M-232.9 369.5C-232.8 369-233.1 368.4-233.7 368.3-234.2 368.2-234.8 368.5-234.9 369.1-235 369.5-236.4 376.9-234.9 384.4-237 384.1-241.1 383-241.7 377.5-242.6 369.8-239.3 363.2-232.6 359-226.1 355-215.6 356.1-215.5 356.1H-215.2C-215 356.2-204.5 355-198 359-191.3 363.2-188 369.7-188.9 377.5-189.5 382.9-193.6 384.1-195.7 384.4-194.2 376.9-195.6 369.6-195.7 369.1S-196.3 368.2-196.9 368.3C-197.4 368.4-197.8 368.9-197.7 369.5-197.7 369.7-194.8 384.7-201.7 393.1-204.8 396.8-209.3 398.7-215.4 398.7-221.4 398.7-225.9 396.8-229 393.1-235.8 384.7-232.9 369.6-232.9 369.5M-215.9 418.9C-216.6 418.2-217.3 417.6-218 417-219 416.1-220.1 415.1-221.1 414.1-221.4 413.9-221.6 413.6-221.9 413.4-223.2 412.2-224.2 411.2-224.3 409.7-224.4 407.8-222.9 406.1-221 405.8H-220.7C-219.9 405.8-219 406.2-218.1 406.8-216.8 407.8-215 407.8-213.7 406.8-212.7 406.1-211.7 405.8-210.9 405.9-209 406.1-207.5 407.8-207.6 409.8-207.7 411.3-208.7 412.3-210 413.5-210.3 413.7-210.5 414-210.8 414.3-211.3 414.9-211.9 415.4-212.5 416-212.8 416.2-213.1 416.5-213.3 416.7-214.2 417.3-215 418.1-215.9 418.9M-179.6 428.4C-181.2 432-184.9 434.9-189.3 435.9-192.7 436.7-195.7 435.8-199.1 433-198.8 432.1-198.6 431.1-198.6 430.1V412.4C-198.6 411.8-199 411.4-199.6 411.4S-200.6 411.8-200.6 412.4V430.2C-200.6 434.1-203.8 437.3-207.7 437.3S-214.8 434.1-214.8 430.2V420.7L-214.7 420.6C-213.8 419.7-212.8 418.8-211.9 418-211.6 417.8-211.4 417.5-211.1 417.3-210.4 416.7-209.7 416.1-209.2 415.5L-208.5 414.8C-207.1 413.5-205.6 412.1-205.5 409.7-205.4 406.7-207.6 404.1-210.6 403.8-212 403.6-213.5 404.1-214.8 405.1-215.4 405.5-216.2 405.5-216.8 405.1-218.2 404.1-219.7 403.6-221.1 403.8-224.1 404.1-226.3 406.7-226.2 409.7-226.1 412.1-224.5 413.5-223.2 414.8L-222.5 415.5C-221.5 416.5-220.4 417.5-219.3 418.4-218.5 419.1-217.7 419.9-216.9 420.6V430.8C-216.9 434.7-220.1 437.9-224 437.9S-231.1 434.7-231.1 430.8V402.5C-231.1 400.2-229.9 398-228 396.6-224.7 399.2-220.5 400.6-215.2 400.6-209.5 400.6-204.9 399-201.5 395.8-198.5 396.5-182.1 400.9-178.8 417.3-178.3 420.3-177.9 424.6-179.6 428.4M-176.4 423.1C-176.3 421.2-176.5 419.1-176.9 417-176.9 416.9-177 416.7-177 416.6-175.2 415.9-171 413.8-168.7 409.3-168.7 409.3-168.7 409.2-168.5 409.2-168.4 409.2-168.4 409.3-168.4 409.3-167.7 413.7-168.6 419.6-176.4 423.1" fill="#ffffff" data-fill-palette-color="accent"></path><path d="M-206.5 380.2C-205 380.2-203.8 378.7-203.8 376.9V376.6C-203.9 376.6-204 376.7-204.2 376.7-204.9 376.7-205.5 376.1-205.5 375.4-205.5 374.9-205.2 374.5-204.8 374.3-205.3 373.9-205.8 373.6-206.4 373.6-207.9 373.6-209.1 375.1-209.1 376.9-209.2 378.7-208 380.2-206.5 380.2" fill="#ffffff" data-fill-palette-color="accent"></path><path d="M-224 380.2C-222.5 380.2-221.3 378.7-221.3 376.9V376.6C-221.4 376.6-221.5 376.7-221.7 376.7-222.4 376.7-223 376.1-223 375.4-223 374.9-222.7 374.5-222.3 374.3-222.8 373.9-223.3 373.6-223.9 373.6-225.4 373.6-226.6 375.1-226.6 376.9-226.7 378.7-225.5 380.2-224 380.2" fill="#ffffff" data-fill-palette-color="accent"></path><circle cx="-207.2" cy="387.7" r="0.70" fill="#ffffff" data-fill-palette-color="accent"></circle><circle cx="-205.6" cy="390.2" r="0.70" fill="#ffffff" data-fill-palette-color="accent"></circle><circle cx="-203.6" cy="387" r="0.70" fill="#ffffff" data-fill-palette-color="accent"></circle><circle cx="-223.7" cy="387.7" r="0.70" fill="#ffffff" data-fill-palette-color="accent"></circle><circle cx="-225.4" cy="390.2" r="0.70" fill="#ffffff" data-fill-palette-color="accent"></circle><circle cx="-227.4" cy="387" r="0.70" fill="#ffffff" data-fill-palette-color="accent"></circle></svg></g></svg></g></svg></g></svg></g></svg></g><defs></defs></svg><rect width="395.52" height="134.2870276437146" fill="none" stroke="none" visibility="hidden"></rect></g></svg></g></svg>